<?xml version="1.0" encoding="utf-8"?>
<!DOCTYPE svg PUBLIC "-//W3C//DTD SVG 1.0//EN" "http://www.w3.org/TR/2001/REC-SVG-20010904/DTD/svg10.dtd">
<svg version="1.0" xmlns="http://www.w3.org/2000/svg" width="512px" height="512px" viewBox="0 0 512 512" preserveAspectRatio="xMidYMid meet">
 <g fill="#1a2b63">
  <path d="M165.2 459.8 c-0.8 -0.8 -1.2 -6 -1.2 -16.9 0 -13 0.3 -16 1.6 -17.3 1.2 -1.3 4 -1.6 14 -1.6 l12.4 0 0 3.4 c0 1.9 -0.4 3.8 -1 4.1 -0.6 0.3 -1 5.2 -1 11 0 5.8 0.4 10.7 1 11 0.6 0.3 1 2.2 1 4.1 l0 3.4 -12.8 0 c-8.6 0 -13.2 -0.4 -14 -1.2z"/>
  <path d="M91.5 301.6 c-4 -1.8 -15.2 -13.6 -16.1 -17 -0.3 -1.5 -0.4 -5 -0.2 -7.8 l0.5 -5 24.4 -24.5 c13.4 -13.5 25.8 -25.1 27.6 -25.9 1.8 -0.8 4.8 -1.4 6.8 -1.4 l3.5 0 0 -5 c0 -7.3 2.9 -10 10.5 -10 8.7 0 14.5 3.9 14.5 9.7 0 3.2 -0.1 3.3 -4.3 3.3 -5.9 0 -8.2 2.5 -7.8 8.5 0.3 4.5 0.2 4.5 -3.1 4.5 -3.1 0 -5.5 2.1 -26.6 23.3 -12.8 12.9 -23.2 23.9 -23.2 24.6 0 0.7 2.5 3.8 5.5 7 4.9 5.1 5.5 6.3 5.5 10 0 3.9 -0.3 4.3 -3.5 5.7 -4.2 1.7 -10 1.8 -14 0z"/>
 </g>
 <g fill="#293d7c">
  <path d="M185 459.5 c-1.1 -1.3 -0.8 -1.5 1.6 -1.5 2.2 0 2.5 -0.3 1.6 -1.2 -0.8 -0.8 -1.2 -5.4 -1.2 -14.3 0 -8.9 0.4 -13.5 1.2 -14.3 0.9 -0.9 0.6 -1.2 -1.6 -1.2 -2.4 0 -2.7 -0.2 -1.6 -1.5 1.1 -1.3 11.3 -1.5 80.6 -1.5 70.7 0 79.4 0.2 80.8 1.6 1.3 1.3 1.6 4.3 1.6 17.3 0 10.9 -0.4 16.1 -1.2 16.9 -0.9 0.9 -20.2 1.2 -80.9 1.2 -69.6 0 -79.8 -0.2 -80.9 -1.5z"/>
  <path d="M164 429.9 c0 -1.7 0.6 -3.7 1.4 -4.5 1.9 -1.8 7.6 -1.9 7.6 0 0 0.8 -1.1 1.7 -2.5 2 -1.5 0.4 -2.7 1.6 -3.1 3.1 -0.9 3.6 -3.4 3.2 -3.4 -0.6z"/>
  <path d="M49 386 c-1 -1.9 -2.2 -2 -23.7 -2.2 l-22.7 -0.3 -1.3 -2.5 c-1 -2 -1.2 -35.9 -1 -168.3 l0.2 -165.9 2.4 -1.9 c2.2 -1.8 4.9 -1.9 68 -1.9 55 -0.1 66 -0.3 68.1 -1.5 3.8 -2.1 230.2 -2.1 234 0 2.1 1.2 13.1 1.4 68.1 1.5 63.1 0 65.8 0.1 68 1.9 l2.4 1.9 0.3 160 0.2 160 -10.7 -0.5 c-6 -0.3 -11.6 -1 -12.6 -1.5 -2.7 -1.4 -5.7 -9.2 -5.7 -14.8 0 -4.5 0.3 -5.1 5.7 -10.3 l5.8 -5.7 -5.3 -5.3 -5.2 -5.3 0 -123 c0 -94.3 -0.3 -123.3 -1.2 -124.2 -1.7 -1.7 -451.9 -1.7 -453.6 0 -0.9 0.9 -1.2 30.1 -1.2 125.5 0 121.8 0 124.2 1.9 125.3 1.3 0.7 55.9 1 169.5 1 l167.6 0 0 2.7 c0 1.8 1.7 4.4 5.5 8.4 5.3 5.6 5.5 5.9 5.5 11.3 0 6 -1.3 9.8 -4.4 13.4 -1.7 2 -2.9 2.2 -10.6 2.2 -5.3 0 -9.1 0.5 -9.8 1.2 -0.8 0.8 -1.2 4.7 -1.2 10.8 l0 9.5 -150.9 0.3 c-150.4 0.3 -151 0.2 -152.1 -1.8z m210.3 -17.4 c3.8 -1.6 7.2 -5.1 8.6 -8.7 2 -5.4 -5.6 -14.9 -11.9 -14.9 -6.3 0 -13.9 9.5 -11.9 14.9 1.4 3.5 4.8 7.1 8.4 8.7 3.7 1.6 3 1.6 6.8 0z"/>
  <path d="M93 300.6 c0 -2.3 0.2 -2.4 2.9 -1.5 3.2 1.1 10.1 -1 10.1 -3.2 0 -0.7 -2.5 -3.8 -5.5 -7 -4.9 -5.1 -5.5 -6.2 -5.5 -10 0 -4.2 0.2 -4.5 23.8 -28.1 21.9 -22.1 23.5 -24 21.7 -25.1 -4.2 -2.5 -6.9 -2.7 -10.7 -0.8 l-3.8 1.8 0 -2.7 c0 -3.1 1.8 -4 8.3 -4 2.6 0 3.7 -0.4 3.7 -1.5 0 -2.4 2.7 -1.8 3.4 0.8 0.3 1.2 1.8 3.8 3.5 5.7 l2.9 3.5 -0.5 -4.5 c-0.4 -3.9 -0.1 -4.8 2.2 -7 2 -1.9 3.6 -2.4 6.8 -2.4 l4.1 0.2 -3.2 -2.9 c-6 -5.3 -12.5 -5 -15.2 0.8 -2 4.4 -4 4.2 -4 -0.2 0 -2.8 0.4 -3.5 2 -3.5 1.3 0 2 -0.7 2 -2 0 -1.8 0.7 -2 6.4 -2 8 0 9.6 0.6 9.6 3.6 0 1.8 0.7 2.5 2.8 3 3.5 0.8 9.1 6 10.8 10.1 1.7 3.9 1.8 10.7 0.2 13.6 -1.9 3.6 -4 4.6 -9.5 4.7 l-5.3 0 0 5.7 0 5.6 -23.7 23.9 c-19.7 19.7 -24.2 23.8 -26.5 23.8 -2.1 0 -2.8 0.5 -2.8 2 0 1.8 -0.7 2 -5.5 2 -5.2 0 -5.5 -0.1 -5.5 -2.4z"/>
  <path d="M75 279.5 c0 -6.2 0.1 -6.5 2.4 -6.5 2.3 0 2.4 0.2 1.4 3 -1 2.9 -0.9 4.5 0.7 8.3 0.6 1.4 0.2 1.7 -1.9 1.7 -2.5 0 -2.6 -0.2 -2.6 -6.5z"/>
 </g>
 <g fill="#2e4c89">
  <path d="M208 406.2 l0 -20.9 17.3 -0.6 c21.5 -0.9 72.4 -0.9 75.5 -0.1 1.2 0.4 2.2 1.3 2.2 2 0 1.2 -5.8 1.4 -34.5 1.4 l-34.5 0 0 19.5 0 19.5 -13 0 -13 0 0 -20.8z"/>
  <path d="M249.5 371.6 c-5.6 -2.5 -9.5 -8.5 -9.5 -14.3 0 -1.5 0.9 -4.6 2.1 -6.9 5.7 -11.8 22.2 -11.7 28 0.2 3.5 7.4 1.6 14.5 -5.3 19.7 -3.4 2.5 -11.3 3.2 -15.3 1.3z m11.5 -3.8 c2.2 -0.7 4 -1.8 4 -2.5 0 -0.6 0.8 -2.5 1.7 -4.1 1.5 -2.7 1.6 -3.5 0.4 -6.7 -1.6 -4.5 -3.8 -6.9 -7.9 -8.3 -5.9 -2 -11.9 1.4 -14.3 8.3 -1.2 3.2 -1.1 4 0.4 6.7 0.9 1.6 1.7 3.5 1.7 4.2 0 1.2 4.8 3.2 8.3 3.5 0.9 0 3.5 -0.5 5.7 -1.1z"/>
  <path d="M349 367.2 c0 -1 0.5 -2.3 1.2 -3 1.7 -1.7 4.8 -1.5 4.8 0.4 0 0.8 -0.6 2.2 -1.4 3 -2 2 -4.6 1.8 -4.6 -0.4z"/>
  <path d="M489 363.1 l0 -2.8 3.5 1.6 c4.5 2.1 4.5 4.1 0 4.1 -3.2 0 -3.5 -0.3 -3.5 -2.9z"/>
  <path d="M367 364.7 c0 -0.3 1.6 -2.1 3.6 -4.1 2 -2 3.8 -3.6 4.1 -3.6 0.2 0 0.3 1.7 0.1 3.8 -0.3 3.5 -0.5 3.7 -4 4 -2.1 0.2 -3.8 0.1 -3.8 -0.1z"/>
  <path d="M484 355.4 c0 -4.4 1.8 -4.2 3.7 0.4 1.3 3.1 1.2 3.2 -1.2 3.2 -2.2 0 -2.5 -0.4 -2.5 -3.6z"/>
  <path d="M373.9 347.5 l-1.6 -3.5 2.8 0 c2.6 0 2.9 0.3 2.9 3.5 0 4.5 -2 4.5 -4.1 0z"/>
  <path d="M484 346.8 c0.1 -2.6 1.2 -4.4 5 -8.3 3.7 -3.7 5 -5.8 5 -7.9 0 -2.8 0 -2.9 2 -1.1 3.5 3.1 2.5 6.2 -4 12.8 -3.3 3.4 -6 6.5 -6 6.9 0 0.4 -0.4 0.8 -1 0.8 -0.5 0 -1 -1.5 -1 -3.2z"/>
  <path d="M26.8 329.9 c-2.5 -1.4 -2.3 -4.9 0.2 -4.9 1.6 0 2 0.7 2 3 0 1.7 -0.1 3 -0.2 3 -0.2 0 -1.1 -0.5 -2 -1.1z"/>
  <path d="M91.3 302.3 c-0.7 -0.2 -1.3 -1.8 -1.3 -3.4 l0 -2.9 3.3 2 c1.7 1.1 4.1 2 5.2 2 1.1 0 3.5 -0.9 5.3 -2 l3.2 -2 0 2.9 c0 1.7 -0.6 3.1 -1.6 3.5 -1.8 0.7 -12.3 0.7 -14.1 -0.1z"/>
  <path d="M76 284.5 c0 -4.4 0.9 -4.4 3.8 0 l2.2 3.5 -3 0 c-2.8 0 -3 -0.3 -3 -3.5z"/>
  <path d="M78 272 c0 -3.2 1.7 -5.3 22.8 -26.3 21.3 -21.2 23.1 -22.8 26.1 -22.5 3.1 0.3 2.5 1 -22.9 26.3 -25.4 25.4 -26 25.9 -26 22.5z"/>
  <path d="M147.5 232.9 c-3.8 -4.3 -8 -8.2 -9.2 -8.5 -3.4 -0.9 -2.9 -3.4 0.6 -3.4 1.9 0 3.2 0.6 3.6 1.8 0.9 2.5 13.8 13 16.9 13.8 3.3 0.8 3.4 3.4 0.2 3.4 -1.3 0 -3 0.2 -3.8 0.4 -0.7 0.3 -4.4 -3.1 -8.3 -7.5z"/>
  <path d="M166.8 235 c2.8 -2.6 3.6 -5.9 2.3 -9.3 -1 -2.5 -0.9 -2.7 1.4 -2.7 2.4 0 2.5 0.3 2.5 5.4 0 7.6 -0.6 8.6 -4.8 8.6 l-3.6 0 2.2 -2z"/>
  <path d="M137 216.5 c0 -2.8 0.4 -3.5 2 -3.5 1.6 0 2 0.7 2 3.5 0 2.8 -0.4 3.5 -2 3.5 -1.6 0 -2 -0.7 -2 -3.5z"/>
  <path d="M159 213.5 l-5.4 -5.5 3.5 0 c4.7 0 8.2 3.5 7.7 7.9 l-0.3 3.2 -5.5 -5.6z"/>
  <path d="M482.3 76.5 c-1.9 -2.1 -1.6 -4.5 0.5 -4.5 2.3 0 4.2 1.9 4.2 4.2 0 2.2 -3 2.3 -4.7 0.3z"/>
 </g>
 <g fill="#445ea0">
  <path d="M231 406 l0 -21 36.5 0 36.5 0 0 21 0 21 -36.5 0 -36.5 0 0 -21z"/>
  <path d="M249.4 371.1 c-14.4 -6.5 -9.3 -29.1 6.6 -29.1 11.8 0 19.1 13.6 12.8 23.8 -2.2 3.6 -8.5 7.2 -12.8 7.2 -1.4 0 -4.3 -0.9 -6.6 -1.9z"/>
  <path d="M373.3 356.8 c1.9 -4.6 3.7 -4.8 3.7 -0.4 0 3.2 -0.3 3.6 -2.5 3.6 -2.4 0 -2.5 -0.1 -1.2 -3.2z"/>
  <path d="M483 353.5 c0 -2.2 0.5 -3.5 1.3 -3.5 0.8 0 1.8 1.6 2.4 3.5 1.1 3.3 1 3.5 -1.3 3.5 -2.1 0 -2.4 -0.5 -2.4 -3.5z"/>
  <path d="M363.4 332.5 c0.5 -1.3 -18.5 -1.5 -167.4 -1.5 -151.3 0 -168 -0.2 -169.4 -1.6 -2.7 -2.6 -1.9 -3.7 2.1 -3 2.1 0.3 79.3 0.6 171.6 0.6 l167.7 0 0 3.5 c0 3.1 -0.3 3.5 -2.6 3.5 -1.9 0 -2.5 -0.4 -2 -1.5z"/>
  <path d="M487.2 327.7 c-3.5 -3.6 -4.6 -9.7 -1.7 -9.7 0.8 0 1.5 0.5 1.5 1.2 0 0.7 2.3 3.6 5.2 6.5 l5.2 5.3 -3.5 0 c-2.7 0 -4.3 -0.8 -6.7 -3.3z"/>
  <path d="M82.7 295.2 c-2.6 -2.6 -4.7 -5.5 -4.7 -6.5 0 -0.9 -0.7 -1.7 -1.5 -1.7 -1 0 -1.5 -1.1 -1.5 -3.5 0 -2.4 0.5 -3.5 1.5 -3.5 0.8 0 1.5 0.7 1.5 1.6 0 0.9 3.7 5.4 8.2 10 l8.2 8.4 -3.5 0 c-2.8 0 -4.4 -0.9 -8.2 -4.8z"/>
  <path d="M106 296.5 c1.9 -1.9 3.5 -3.5 3.7 -3.5 0.2 0 0.3 1.6 0.3 3.5 0 3.4 -0.1 3.5 -3.7 3.5 l-3.7 0 3.4 -3.5z"/>
  <path d="M75 275.5 c0 -1.9 0.5 -3.5 1 -3.5 0.6 0 1 -0.7 1 -1.5 0 -1 1 -1.5 3 -1.5 l3.1 0 -2.6 3.7 c-1.4 2.1 -2.5 4.3 -2.5 5 0 0.7 -0.7 1.3 -1.5 1.3 -1 0 -1.5 -1.1 -1.5 -3.5z"/>
  <path d="M151.9 250.1 c1.3 -1.8 2.1 -4.5 2.1 -7.1 0 -3.9 -0.6 -4.8 -7.4 -11.8 -6.8 -7 -7.6 -7.5 -11.7 -7.6 -3.1 -0.1 -5.4 0.6 -7.6 2.2 l-3.3 2.3 0 -3 c0 -2.4 0.4 -3.1 2 -3.1 1.1 0 2 -0.4 2 -1 0 -0.5 2 -1 4.5 -1 l4.5 0 0 -4.5 c0 -2.5 0.5 -4.5 1 -4.5 0.6 0 1 -0.9 1 -2 0 -1.6 0.7 -2 3.7 -2 l3.7 0 -2.6 2.8 c-2.6 2.7 -3.1 4.4 -2.9 9.1 0.1 3.2 13.4 16.8 17.2 17.6 3.1 0.7 3.9 2.9 1.4 3.9 -1 0.3 -1.5 1.9 -1.5 4.6 0 2.2 -0.4 4 -1 4 -0.5 0 -1 0.9 -1 2 0 1.6 -0.7 2 -3.1 2 l-3 0 2 -2.9z"/>
  <path d="M163 238 c0 -0.5 0.4 -1 0.9 -1 0.4 0 2 -1.1 3.5 -2.5 l2.6 -2.4 0 3.4 c0 3.3 -0.2 3.5 -3.5 3.5 -1.9 0 -3.5 -0.4 -3.5 -1z"/>
  <path d="M168.6 224.3 c-1.8 -3.4 -11.2 -13.3 -14.5 -15.4 -2.8 -1.8 -2.1 -3.9 1.2 -3.9 3.3 0 65.7 -62.8 69 -69.5 2.9 -5.9 4.5 -7.4 11.4 -10.9 7.6 -3.8 13 -3.6 17.1 0.7 4.1 4.2 4.2 8.3 0.3 16.8 -3.4 7.5 -4.8 8.9 -11.7 11.8 -4.1 1.8 -10.5 7.7 -36.6 33.9 -27.5 27.6 -31.7 32.2 -32.2 35.5 -0.8 4.4 -2 4.7 -4 1z"/>
  <path d="M482.8 89.8 l-0.3 -13.3 -218.7 -0.3 c-218 -0.2 -218.8 -0.2 -218.8 -2.2 0 -2 0.7 -2 219.4 -2 198.2 0 219.6 0.2 221 1.6 1.3 1.2 1.6 4.1 1.6 15.5 0 13.2 -0.1 13.9 -2 13.9 -1.8 0 -2 -0.8 -2.2 -13.2z"/>
  <path d="M25 76.2 c0 -2.3 1.9 -4.2 4.2 -4.2 2.2 0 2.4 2.6 0.4 4.6 -2 2 -4.6 1.8 -4.6 -0.4z"/>
 </g>
 <g fill="#28a5a5">
  <path d="M25 89.6 c0 -18 -0.3 -17.6 12.3 -17.6 13.1 0 15.8 1 12.2 4.6 -1.2 1.2 -1.5 4.3 -1.5 14.5 l0 12.9 -11.5 0 -11.5 0 0 -14.4z"/>
 </g>
 <g fill="#37c47a">
  <path d="M290.5 287.5 c-2.1 -2 -2.5 -3.4 -2.5 -8 0 -4.6 0.4 -6 2.5 -8 l2.4 -2.5 38 0 c20.9 0 38.7 0.3 39.6 0.6 2.3 0.9 4.5 5.7 4.5 9.9 0 4.2 -2.2 9 -4.5 9.9 -0.9 0.3 -18.7 0.6 -39.6 0.6 l-38 0 -2.4 -2.5z"/>
  <path d="M293.1 264.9 c-3.8 -1.5 -5 -4 -5 -9.9 0 -6.1 1.2 -8.4 5.3 -10 3.8 -1.4 138.4 -1.4 142.2 0 4.1 1.6 5.3 3.9 5.3 10 0 6.1 -1.2 8.4 -5.3 10 -3.6 1.3 -139.1 1.3 -142.5 -0.1z"/>
  <path d="M290.5 238.5 c-3.6 -3.5 -3.6 -12.5 0 -16 l2.4 -2.5 71.6 0 71.6 0 2.4 2.5 c2.1 2 2.5 3.4 2.5 8 0 4.6 -0.4 6 -2.5 8 l-2.4 2.5 -71.6 0 -71.6 0 -2.4 -2.5z"/>
 </g>
 <g fill="#db722c">
  <path d="M379 445.5 c0 -3.3 0.2 -3.5 3.5 -3.5 3.3 0 3.5 0.2 3.5 3.5 0 3.3 -0.2 3.5 -3.5 3.5 -3.3 0 -3.5 -0.2 -3.5 -3.5z"/>
  <path d="M389 440.6 c0 -2.6 0.8 -4.1 3.5 -6.5 3.1 -2.7 4.4 -3.1 9 -3.1 5.4 0 10.5 1.5 10.5 3.2 0 0.4 0.9 0.8 2 0.8 1.6 0 2 0.7 2 3.5 0 3.3 -0.2 3.5 -3.5 3.5 -1.9 0 -3.5 -0.3 -3.5 -0.8 0 -0.4 -1.7 -1.2 -3.7 -1.9 -3.6 -1.1 -4 -1 -6.8 1.8 -2.1 2 -4.1 2.9 -6.3 2.9 -3 0 -3.2 -0.2 -3.2 -3.4z"/>
  <path d="M360 425 l0 -5 3.5 0 3.5 0 0 5 0 5 -3.5 0 -3.5 0 0 -5z"/>
  <path d="M423.5 427.3 c-21.9 -2.6 -37.9 -18.5 -40.8 -40.1 -3.7 -28.5 13 -51.6 39.8 -55.3 22.5 -3 42.8 6.7 51.5 24.5 6.8 13.8 6.8 32.4 0 46.2 -8.5 17.3 -29 27.4 -50.5 24.7z m15.9 -20.3 c11.2 -4.2 20.6 -16.8 20.6 -27.6 0 -14.9 -17 -30.7 -31.2 -29.1 -13.9 1.7 -27.1 15.5 -27.2 28.7 -0.2 9.9 7.2 21.3 16.9 26.2 8.4 4.3 13 4.7 20.9 1.8z"/>
  <path d="M420 403.7 c-4.9 -1.6 -12.3 -9.3 -13.8 -14.3 -0.6 -2.3 -1.2 -6.7 -1.2 -9.9 0 -8.5 1.8 -13.4 7 -18.6 5.6 -5.6 11.1 -7.4 21.3 -6.7 10.5 0.7 16.9 4.8 20.8 13.3 2.5 5.5 2.6 18.5 0 24 -2.5 5.5 -7.5 10.1 -12.9 12 -5.2 1.7 -16 1.8 -21.2 0.2z m14.4 -19.8 c1.5 -1.2 2.6 -3 2.6 -4.4 0 -2.4 -4.1 -6.5 -6.5 -6.5 -1.6 0 -6.5 4.9 -6.5 6.5 0 1.6 4.9 6.5 6.5 6.5 0.7 0 2.4 -0.9 3.9 -2.1z"/>
  <path d="M372 411.3 c0 -3.2 -3.4 -11.3 -4.7 -11.3 -0.8 0 -1.3 -1.3 -1.3 -3.5 0 -3.3 0.2 -3.5 3.5 -3.5 2.4 0 3.5 0.5 3.5 1.5 0 0.8 0.6 1.5 1.4 1.5 1.8 0 4.6 7.6 4.6 12.8 0 4.1 -0.1 4.2 -3.5 4.2 -2.7 0 -3.5 -0.4 -3.5 -1.7z"/>
  <path d="M347.6 397.4 c-2.2 -2.1 -2.3 -12.4 -0.1 -12.4 1.2 0 1.5 -1.7 1.5 -9.4 0 -10.3 1 -12.6 5.6 -12.6 3 0 3.4 3.5 0.4 4.3 -1.9 0.5 -2 1.4 -2 12.2 0 10.8 0.1 11.7 2 12.2 1.5 0.4 2 1.4 2 3.9 0 3.3 -0.1 3.4 -3.9 3.4 -2.3 0 -4.6 -0.7 -5.5 -1.6z"/>
  <path d="M505.8 367.3 c-1 -0.2 -1.8 -1.3 -1.8 -2.4 0 -1.4 0.7 -1.9 2.8 -1.9 3 0 5.2 1.6 5.2 3.7 0 1.3 -2.7 1.5 -6.2 0.6z"/>
  <path d="M366 364.6 c0 -0.8 1.2 -1.7 2.6 -2 1.7 -0.5 3.1 -2 4.4 -4.9 3.3 -7.2 2.8 -9.5 -4 -16.2 -5.9 -5.8 -7.2 -8.6 -4.7 -10.2 0.8 -0.5 0.2 -1 -1.8 -1.4 -3 -0.7 -3 -0.7 0.6 -0.8 3.4 -0.1 3.7 0.1 4.3 3.4 0.4 1.9 1.3 3.5 1.9 3.5 1.6 0 7.7 6.2 7.7 7.8 0 0.7 0.5 1.2 1 1.2 1.6 0 1.2 9 -0.6 13.7 -0.9 2.4 -2.3 4.3 -3 4.3 -0.8 0 -1.4 0.7 -1.4 1.5 0 1 -1.1 1.5 -3.5 1.5 -2.3 0 -3.5 -0.5 -3.5 -1.4z"/>
  <path d="M487.2 364.7 c-2.3 -2.8 -5.2 -10.4 -5.2 -13.9 0 -5.4 0.8 -6.8 4.2 -6.8 2.8 0 2.9 0.1 1.4 2.2 -0.9 1.2 -1.6 3.4 -1.6 4.8 0 3.4 4.1 10.3 6.8 11.5 1.2 0.5 2.2 1.5 2.2 2.2 0 1.7 -6.4 1.7 -7.8 0z"/>
  <path d="M494 336.9 c0 -1.4 -0.5 -3 -1.1 -3.6 -0.6 -0.6 -0.9 -2.3 -0.7 -3.9 l0.3 -2.9 2.8 2.7 c3.2 3.2 3.4 5.8 0.7 8.3 -1.9 1.8 -2 1.7 -2 -0.6z"/>
  <path d="M483 320.5 c0 -2.8 0.4 -3.5 2 -3.5 1.4 0 2 0.7 2 2.3 0 1.3 0.5 2.8 1.2 3.5 0.9 0.9 0.5 1.2 -2 1.2 -3 0 -3.2 -0.2 -3.2 -3.5z"/>
  <path d="M168.6 233.5 c1.2 -1.8 1.5 -3.6 1 -6.6 -1 -6.3 0.8 -10.8 6.4 -16.4 l5 -4.9 0 3.4 c0 2.6 -0.9 4.3 -3.7 7.2 -3.4 3.5 -3.6 4.1 -4.1 11.8 l-0.5 8 -2.9 0 c-2.8 0 -2.8 0 -1.2 -2.5z"/>
  <path d="M140 209.6 c0 -3.2 0.3 -3.6 2.5 -3.6 1.4 0 2.5 -0.4 2.5 -0.9 0 -0.6 4.3 -1 9.7 -1 l9.7 0 -2.2 2.1 c-1.8 1.9 -3.2 2.2 -9.6 2 -6.7 -0.1 -7.6 0.1 -10 2.5 l-2.6 2.6 0 -3.7z"/>
 </g>
 <g fill="#ff9518">
  <path d="M416.2 458.8 c-0.7 -0.7 -1.2 -4.3 -1.2 -9.2 0 -7.7 0 -7.9 -1.9 -6.2 -1.8 1.7 -1.9 1.7 -2.5 -0.1 -0.6 -1.9 -6.4 -5.3 -8.9 -5.3 -0.7 0 -3.7 2.5 -6.7 5.5 -5.1 5.2 -5.7 5.5 -10.4 5.5 -4.8 0 -5 -0.1 -14.2 -9.2 l-9.4 -9.2 0 -5.5 c0 -5.4 0.2 -5.7 5.5 -11.1 5.3 -5.4 5.5 -5.8 4.5 -8.6 -2.2 -5.6 -3.7 -6.4 -11.6 -6.4 -4 0 -8.4 -0.4 -9.8 -1 -2.4 -0.9 -2.6 -1.4 -2.6 -7 0 -6.8 1.7 -8.2 2.3 -1.7 0.2 2.3 0.4 -2.2 0.5 -10.1 l0.2 -14.2 2.6 -1 c1.4 -0.6 5.8 -1 9.8 -1 5.7 0 7.6 -0.4 8.8 -1.7 2 -2.3 4.8 -8.9 4.8 -11.5 0 -1 -2.7 -4.7 -6.1 -8 -5.1 -5.2 -6 -6.7 -5.7 -9 0.4 -2.2 0.1 -2.8 -1.4 -2.8 -1 0 -1.8 -0.4 -1.8 -0.8 0 -0.5 4.2 -5 9.4 -10 9.2 -9.1 9.4 -9.2 14.2 -9.2 4.7 0 5.3 0.3 10.4 5.5 3 3 6 5.5 6.8 5.5 1.2 0 7 -2.6 8.2 -3.7 0.3 -0.3 0.7 -4.7 1 -9.9 0.4 -6.8 1 -9.8 2 -10.4 0.8 -0.6 9 -1 18.2 -1 19.7 0 18.8 -0.5 18.8 11.9 0 7.4 0.2 8.1 2.7 10 5.2 4.2 6.9 3.9 13.2 -2.3 5.4 -5.3 5.9 -5.6 10.7 -5.6 4.3 0 5.5 0.4 7.8 2.9 2.1 2.2 2.7 3.7 2.4 5.5 -0.4 2.1 0.3 3.4 3.7 6.5 4.4 4 7.5 7.9 7.5 9.4 0 0.4 -3 3.9 -6.6 7.8 -7.3 7.8 -7.4 8.4 -3.1 16.4 l2.2 4 9.1 0.5 c5.5 0.3 9.8 1.1 10.8 1.9 1.3 1.1 1.6 3.5 1.6 13.8 0 6.8 -0.5 13.3 -1 14.4 -0.9 1.6 -2.2 1.9 -9.4 1.9 -9.9 0 -12.3 1.4 -15 8.5 -2.3 5.8 -1.3 8.4 5.5 15.1 2.7 2.6 4.9 5.6 4.9 6.6 0 1.6 -17.7 19.8 -20.2 20.7 -0.5 0.1 -3.8 -2.4 -7.3 -5.8 -4.9 -4.7 -7 -6.1 -9.3 -6.1 -4 0 -11.7 3.4 -12.6 5.5 -0.3 0.9 -0.6 4.9 -0.6 8.9 0 11.4 -0.3 11.6 -16.4 11.6 -8.9 0 -13.6 -0.4 -14.4 -1.2z m-20.6 -21 l2.9 -3.3 -3.2 2.9 c-3.1 2.8 -3.8 3.6 -3 3.6 0.2 0 1.6 -1.5 3.3 -3.2z m46.9 -15 c11.3 -2.8 23.3 -12.6 28.6 -23.3 16 -32.5 -11 -69.3 -47.1 -64.3 -24.1 3.3 -41.9 27 -38.1 50.9 1.5 9.4 7 19.7 13.7 25.9 12.3 11.1 26.8 14.8 42.9 10.8z"/>
  <path d="M422 411.1 c-8.9 -2.8 -16.9 -9.6 -20.9 -18.1 -2.2 -4.6 -2.6 -6.9 -2.6 -14 0 -7.2 0.4 -9.3 2.7 -13.5 5 -9.6 14.8 -16.8 24.3 -18.2 4 -0.5 4.5 -0.4 4.5 1.4 0 1.6 -0.9 2.2 -3.8 2.6 -2.1 0.4 -4.6 1.3 -5.7 2 -1.7 1.3 -1.3 1.4 3.3 0.9 4.2 -0.4 5.2 -0.2 5.2 1 0 1 -1.8 2 -4.7 2.9 -6.7 1.8 -13.3 8.6 -15.5 15.9 -1.7 5.3 -1.7 5.8 0 11 2.3 7.3 8.9 14.1 15.5 15.9 2.9 0.9 4.7 1.9 4.7 2.9 0 1.2 -1 1.4 -5 1 -2.7 -0.3 -5 -0.3 -5 -0.1 0 0.2 1.6 1.1 3.5 1.9 4.4 1.8 11.9 1.7 17 -0.2 2.2 -0.9 5 -1.8 6.3 -2.1 1.2 -0.3 2.2 -1 2.2 -1.7 0 -0.6 1.5 -2.5 3.4 -4.2 3.4 -3.1 8.6 -14.3 8.6 -18.4 0 -3.5 -2.3 -11.4 -3.7 -12.8 -0.7 -0.7 -1.3 -1.7 -1.3 -2.2 0 -1.6 -8.7 -9.5 -12.4 -11.2 -2 -1 -5.4 -2.1 -7.6 -2.4 -3 -0.5 -4 -1.1 -4 -2.5 0 -4.5 13.8 -0.4 21.4 6.2 10.6 9.3 14 24.8 8.2 37.4 -3.5 7.6 -10.9 14.7 -18.2 17.5 -5.6 2 -15.4 2.6 -20.4 1.1z"/>
  <path d="M432 403.7 c0 -0.7 2.4 -2.1 5.3 -3 21.8 -6.9 20.3 -38.4 -2 -43.2 -4.6 -0.9 -4.4 -3.5 0.2 -3.5 7.3 0 14.6 4.9 18.6 12.3 2.9 5.5 3.5 15 1.5 22 -1.6 5.6 -6.8 12.7 -9.3 12.7 -0.7 0 -1.3 0.4 -1.3 0.9 0 1.3 -5.7 3.1 -9.6 3.1 -2.2 0 -3.4 -0.5 -3.4 -1.3z"/>
  <path d="M426.4 388.4 c-7.7 -3.8 -7.5 -14.2 0.3 -17.9 8 -3.8 16.6 4.3 13.4 12.7 -2 5.2 -8.7 7.7 -13.7 5.2z m10.6 -8.9 c0 -0.5 -1.1 -2.3 -2.5 -3.9 l-2.5 -2.9 -1.4 3.4 c-1.3 3.1 -1 5.8 1 9.1 0.6 1 5.4 -4.1 5.4 -5.7z"/>
  <path d="M212.3 307.9 c-6.4 -2.5 -13.1 -8.8 -16.3 -15.4 -2.1 -4.2 -2.6 -6.7 -2.8 -16 l-0.3 -11 -14.2 -14.2 -14.1 -14.2 2.8 -2.2 c2.6 -2 2.8 -2.7 2.4 -7.1 -0.7 -6.6 0.8 -10.4 6.5 -16.8 l4.7 -5.5 18.3 18.3 18.2 18.2 10 0 c8.9 0 10.7 0.3 16 2.8 13.3 6.4 20 20 18 36.7 l-0.7 5.5 -4.1 0 c-3.9 0 -4.8 -0.6 -12.4 -8.2 l-8.3 -8.3 -7 7 -7 7 8.1 8.1 c7.9 7.9 8 8.2 7.7 12.5 l-0.3 4.4 -10 0.2 c-8 0.2 -11 -0.2 -15.2 -1.8z"/>
  <path d="M126 198.5 l-13.6 -13.6 -10.9 -0.2 c-9.2 -0.2 -11.8 -0.7 -15.7 -2.6 -6.5 -3.2 -12.5 -9.3 -15.4 -15.6 -2.2 -4.8 -2.4 -6.5 -2.2 -16.2 l0.3 -10.8 3.8 -0.3 c3.6 -0.3 4.3 0.2 12.6 8.2 l8.7 8.6 6.9 -7 7 -7 -8.3 -8.3 c-7.6 -7.7 -8.2 -8.5 -8.2 -12.4 l0 -4.2 4.6 -0.7 c6.5 -0.9 16.7 0.2 21.8 2.5 6 2.6 12.3 8.5 15.4 14.5 2.2 4.4 2.7 6.6 3 16.2 l0.4 11.1 17.9 17.9 17.9 17.9 -5.2 5.2 c-3 3 -6.1 5.3 -7.3 5.3 -1.2 0 -2.5 0.4 -3.1 1 -0.6 0.6 -2.1 0.6 -4.3 0 -3.6 -1 -10.1 0.9 -10.1 2.9 0 2.8 -3.6 0 -16 -12.4z"/>
 </g>
 <g fill="#f24976">
  <path d="M241.5 499.9 c-74.5 -4 -145.6 -44.3 -187.6 -106.5 -2.7 -4 -4.9 -7.6 -4.9 -7.9 0 -0.3 36.5 -0.5 81 -0.5 l81 0 0 21 0 21 -20.8 0 c-14.8 0 -21.1 0.3 -22 1.2 -1.7 1.7 -1.7 26.9 0 28.6 0.9 0.9 21.8 1.2 87.8 1.2 66 0 86.9 -0.3 87.8 -1.2 0.8 -0.8 1.2 -5.4 1.2 -13.9 0 -10.3 -0.3 -13.1 -1.6 -14.3 -1.3 -1.4 -4.7 -1.6 -22 -1.6 l-20.4 0 0 -21 0 -21 24 0 24 0 0 3.9 c0 6 1.7 7.1 11.1 7.1 4.4 0 8.8 0.4 9.8 1 2.2 1.1 5.1 7.9 5.1 11.8 0 2 -1.5 4.3 -6 8.7 -3.3 3.3 -6 6.6 -6 7.5 0 2.2 19.1 21 21.4 21 1 0 4.9 -2.7 8.8 -6 3.8 -3.3 7.3 -6 7.8 -6 1.8 0 9.5 3.3 11.3 4.8 0.9 0.8 1.7 2.1 1.7 2.7 0 1.6 -12.8 11.5 -26.4 20.3 -33.4 21.8 -77 36.1 -114.6 37.8 -6.3 0.3 -12.8 0.6 -14.5 0.7 -1.6 0.2 -9.3 0 -17 -0.4z"/>
  <path d="M140 40.8 c5.2 -3.1 19.1 -9.4 30.7 -13.8 52.7 -20.2 117.9 -20.2 170.6 0 11.6 4.4 25.5 10.7 30.7 13.8 l3.5 2.2 -119.5 0 -119.5 0 3.5 -2.2z"/>
 </g>
 <g fill="#ffaf10">
  <path d="M427.5 411.5 c-0.5 -0.2 -2.7 -0.6 -4.8 -1 -8 -1.3 -16.6 -13 -18.6 -25.1 -1.8 -11.7 2.4 -24.9 10.4 -32.3 9.9 -9.1 28 -7.3 39.1 3.8 6.8 6.9 8.9 12.2 8.9 22.1 0 7.1 -0.4 9.4 -2.6 14 -2.9 6.2 -8.6 12.3 -13.9 15 -5.3 2.7 -15.3 4.6 -18.5 3.5z m13.1 -11.6 c14.7 -7.1 17.3 -26.9 5 -37.6 -4.6 -4.1 -9.5 -5.6 -17 -5.1 -19.1 1.2 -27.7 24.6 -14.1 38.2 1.7 1.8 4.7 3.9 6.6 4.9 4.9 2.4 14.2 2.2 19.5 -0.4z"/>
  <path d="M427.4 385.5 c-0.7 -1.9 -1.4 -4.6 -1.4 -6 0 -1.4 0.7 -4.1 1.4 -6 1.2 -2.9 2 -3.5 4.4 -3.5 5.2 0 9.3 5.8 8.4 11.7 -0.5 3.3 -5 7.3 -8.4 7.3 -2.4 0 -3.2 -0.6 -4.4 -3.5z"/>
  <path d="M392.6 319 c-6.7 -6.4 -7.9 -6.9 -11.4 -4.4 -2.1 1.5 -2.2 1.4 -2.2 -1.4 0 -1.8 0.6 -3.2 1.6 -3.6 2.5 -1 7.4 -0.7 7.4 0.4 0 0.6 0.8 1 1.7 1 1 0 4 2.2 6.8 4.9 5 5 5 5 8.8 3.8 2 -0.7 4 -2 4.3 -2.9 0.7 -2.4 4.4 -2.4 4.4 0 0 2.7 -1.2 4 -6 6.1 -6.9 3.2 -8.5 2.8 -15.4 -3.9z"/>
  <path d="M454 323.4 c-1.9 -0.8 -4.2 -2.2 -5.2 -3.1 -2.5 -2.2 -2.3 -5.3 0.2 -5.3 1.1 0 2 0.6 2 1.3 0 1.9 6.8 4.1 12 3.8 l4.5 -0.2 -2.4 2.5 c-2.8 3 -6 3.2 -11.1 1z"/>
  <path d="M473 311.3 c0 -2 0.5 -2.3 3.5 -2.3 3 0 3.5 0.3 3.5 2.3 0 1.9 -0.5 2.2 -3.5 2.2 -3 0 -3.5 -0.3 -3.5 -2.2z"/>
  <path d="M218.5 310.3 c-4 -0.8 -10.5 -3.5 -10.5 -4.3 0 -0.4 -0.9 -1 -2 -1.3 -1.4 -0.3 -2 -1.4 -2 -3.1 0 -2.1 -0.5 -2.6 -2.4 -2.6 -5.2 0 -10.3 -14.4 -9.3 -26.1 l0.6 -6.6 -14 -13.9 c-7.6 -7.6 -13.9 -14.4 -13.9 -15 0 -0.7 0.8 -1.5 1.7 -1.8 1.3 -0.5 5.5 3.1 16.5 14.1 l14.8 14.9 -1.1 3.2 c-0.6 1.8 -0.9 6.3 -0.7 10 1 17 14.1 29.2 31.4 29.2 6.8 0 8.9 -1.5 6.4 -4.5 -1.1 -1.3 -0.8 -1.5 1.9 -1.5 3.2 0 3.2 0.1 2.9 4.2 -0.2 3.5 -0.7 4.3 -2.8 4.9 -2.7 0.8 -14.3 0.9 -17.5 0.2z"/>
  <path d="M411 302.4 c0 -4.4 1.9 -6.4 5.9 -6.4 3.8 0 4.2 2.5 0.7 3.4 -1.7 0.4 -2.6 1.5 -3.1 3.6 -0.9 4.3 -3.5 3.9 -3.5 -0.6z"/>
  <path d="M447 303.5 c0 -0.8 -0.9 -2.4 -2 -3.5 l-2 -2 3.5 0 c3.3 0 3.5 0.2 3.5 3.5 0 2.4 -0.5 3.5 -1.5 3.5 -0.8 0 -1.5 -0.7 -1.5 -1.5z"/>
  <path d="M242.6 278 c-9.6 -9.5 -10 -10 -8.3 -11.7 1.6 -1.7 2.2 -1.3 11.5 8 5.3 5.3 10.2 9.7 10.8 9.7 1.5 0 2.4 -7.6 1.5 -13 -1.8 -10.7 -8.3 -19 -18.3 -23.5 -5.7 -2.6 -6.8 -2.7 -15.5 -2.2 -8.6 0.5 -9.3 0.4 -9.3 -1.3 0 -4 18.5 -4 27.8 0 2.9 1.2 5.2 2.9 5.2 3.6 0 0.8 0.8 1.4 1.8 1.4 2.1 0 5.2 2.9 5.2 4.8 0 0.7 0.5 1.2 1 1.2 0.6 0 1 0.7 1 1.5 0 0.8 0.4 1.5 1 1.5 0.5 0 1.6 2.3 2.5 5.2 1.7 5.8 2.1 21.8 0.5 21.8 -0.5 0 -1 0.7 -1 1.5 0 1.1 -1.1 1.5 -3.7 1.5 -3.2 0 -4.6 -1 -13.7 -10z"/>
  <path d="M125.5 199 c-12.3 -12.3 -14.4 -14 -17.2 -14 -4.8 0 -4.2 -2.5 1 -3.8 l4.2 -1.1 14.7 14.6 c12.4 12.4 14.5 14.9 13.7 16.5 -0.5 1 -1.3 1.8 -1.7 1.8 -0.4 0 -7 -6.3 -14.7 -14z"/>
  <path d="M88.8 183.8 c-1.6 -0.5 -2.8 -1.4 -2.8 -1.9 0 -0.5 -0.8 -0.9 -1.8 -0.9 -2.7 0 -6.2 -2.9 -6.2 -5.1 0 -1.2 -0.7 -1.9 -2 -1.9 -1.1 0 -2.4 -0.8 -2.7 -1.7 -0.4 -1 -1.3 -2.4 -2 -3.1 -3.3 -3.4 -5.4 -18.5 -3.7 -27.1 0.6 -2.9 0.9 -3.1 5 -3.1 4.2 0 4.4 0.1 4.4 3 0 3 -0.1 3 -2.3 1.5 -1.3 -0.8 -2.7 -1.2 -3 -0.8 -0.4 0.3 -0.7 4 -0.7 8.2 0 5.9 0.6 8.7 2.4 12.8 4.1 8.7 12.9 15.7 22.4 17.8 4.6 1 4.2 3.5 -0.5 3.4 -2.1 0 -5 -0.5 -6.5 -1.1z"/>
  <path d="M132.8 163.4 c-1.3 -1.3 -1.4 -2.2 -0.6 -4.6 0.6 -1.6 0.8 -6.2 0.6 -10.1 -1 -14.7 -10.4 -25.7 -24.8 -28.8 -5.9 -1.3 -7 -3.9 -1.7 -3.9 4.3 0 13.7 2.8 13.7 4 0 0.6 0.7 1 1.5 1 0.8 0 1.5 0.5 1.5 1 0 0.6 0.6 1 1.3 1 1.9 0 4.7 3.3 4.7 5.3 0 0.9 0.6 1.7 1.4 1.7 0.7 0 2.4 2.4 3.7 5.3 2 4.3 2.3 6.8 2.3 15.2 0 5.5 -0.5 11 -1 12.3 -0.9 2 -1.1 2.1 -2.6 0.6z"/>
  <path d="M99.7 135.1 c-9 -9.1 -9.7 -10.1 -9.7 -13.8 0 -4.4 1.2 -5.3 7.8 -5.3 4.5 0 4.3 2.7 -0.3 3.6 -1.9 0.3 -3.5 1.1 -3.5 1.7 0 0.7 4.4 5.5 9.7 10.9 8.3 8.3 9.5 9.9 8.3 11.2 -0.7 0.9 -1.6 1.6 -1.9 1.6 -0.4 0 -5.1 -4.4 -10.4 -9.9z"/>
 </g>
 <g fill="#5dc1d8">
  <path d="M102 300 c0 -0.5 0.4 -1 0.9 -1 0.4 0 2 -1.2 3.5 -2.6 l2.6 -2.7 0 3.7 c0 3.5 -0.1 3.6 -3.5 3.6 -1.9 0 -3.5 -0.4 -3.5 -1z"/>
  <path d="M25 102.1 c0 -1.4 0.5 -1.8 2 -1.4 1.1 0.3 2 1.2 2 1.9 0 0.8 -0.9 1.4 -2 1.4 -1.3 0 -2 -0.7 -2 -1.9z"/>
  <path d="M42 102.5 c0 -0.8 0.7 -1.5 1.5 -1.5 1.3 0 1.5 -2 1.5 -12.4 0 -6.8 0.3 -13.1 0.6 -14 0.6 -1.5 20.9 -1.6 220 -1.6 174.7 0 219.5 0.3 219.9 1.2 0.2 0.7 0.5 7.7 0.7 15.6 l0.3 14.2 -222.2 0 c-196.9 0 -222.3 -0.2 -222.3 -1.5z"/>
 </g>
 <g fill="#69cdff">
  <path d="M153.1 248.5 c1.2 -1.9 2.5 -3.5 3 -3.5 0.5 0 0.9 1.6 0.9 3.5 0 3.2 -0.2 3.5 -3 3.5 l-2.9 0 2 -3.5z"/>
  <path d="M179.2 209.7 c-0.9 -1 3.1 -5.5 17.3 -19.7 18.3 -18.3 18.5 -18.4 18.5 -15 0 3.2 -1.4 5 -16.3 19.8 -8.9 8.9 -16.7 16.2 -17.3 16.2 -0.7 0 -1.6 -0.6 -2.2 -1.3z"/>
  <path d="M290.9 198.1 c-1.8 -1.4 -2.3 -3.1 -2.7 -7.9 -0.4 -5.5 -0.2 -6.3 2.1 -8.6 l2.6 -2.6 71.6 0 71.6 0 2.6 2.6 c2.3 2.3 2.5 3.1 2.1 8.6 -0.8 10.7 6 9.8 -76.3 9.8 -67.9 0 -71.4 -0.1 -73.6 -1.9z"/>
  <path d="M290.1 172.4 c-3.1 -3.9 -2.9 -11.4 0.3 -15.1 l2.4 -2.8 71.7 0 71.7 0 2.4 2.8 c3.2 3.7 3.4 11.2 0.3 15.1 l-2 2.6 -72.4 0 -72.4 0 -2 -2.6z"/>
  <path d="M231.1 155.4 c1.3 -1.6 5.1 -3.7 9.4 -5.4 2.2 -0.8 2.5 -0.7 2.5 1.3 0 2.7 -5.3 5.7 -10.2 5.7 -2.6 0 -2.9 -0.2 -1.7 -1.6z"/>
  <path d="M290.9 149.1 c-1.8 -1.4 -2.3 -3.1 -2.7 -7.9 -0.4 -5.5 -0.2 -6.3 2.1 -8.6 l2.6 -2.6 71.6 0 71.6 0 2.6 2.6 c2.3 2.3 2.5 3.1 2.1 8.6 -0.8 10.7 6 9.8 -76.3 9.8 -67.9 0 -71.4 -0.1 -73.6 -1.9z"/>
  <path d="M249.6 140.3 c0.9 -2.1 2.1 -5 2.7 -6.5 1.5 -3.7 3.7 -3.6 3.7 0.2 0 4.8 -3 10 -5.7 10 -2.3 0 -2.3 0 -0.7 -3.7z"/>
  <path d="M227.2 132.3 c0.3 -3.6 0.5 -3.8 4.1 -4.1 2 -0.2 3.7 -0.1 3.7 0.1 0 0.6 -7.1 7.7 -7.7 7.7 -0.2 0 -0.3 -1.7 -0.1 -3.7z"/>
 </g>
 <g fill="#d9eafc">
  <path d="M26.2 328.8 c-0.9 -0.9 -1.2 -27.7 -1.2 -114.5 l0 -113.3 11.5 0 11.5 0 0.3 111.8 c0.2 61.4 0.7 112.9 1.1 114.5 l0.8 2.7 -11.4 0 c-7.5 0 -11.8 -0.4 -12.6 -1.2z"/>
  <path d="M484.2 318.8 c-0.9 -0.9 -1.2 -26.6 -1.2 -109.5 0 -107.6 0 -108.3 2 -108.3 2 0 2 0.7 2 109.5 0 60.2 -0.4 109.5 -0.8 109.5 -0.4 0 -1.3 -0.5 -2 -1.2z"/>
  <path d="M92 302.7 c-2.9 -1 -3.6 -1.7 -3.8 -4.5 l-0.3 -3.4 3.8 2.6 c4 2.8 8.6 3.3 11.8 1.3 1.1 -0.7 13 -12.4 26.5 -26 24.1 -24.4 24.4 -24.8 24.5 -28.9 0 -5.8 0.9 -6.8 5.6 -6.8 2.2 0 4.8 -0.4 5.8 -1 1.4 -0.7 2.3 -0.5 3.5 0.9 1.6 1.7 1.5 1.9 -1.1 2.9 -1.5 0.6 -4.4 1.3 -6.3 1.4 -3.4 0.3 -3.5 0.4 -3.8 5.1 -0.2 2.6 -0.7 4.7 -1.3 4.7 -0.5 0 -0.9 0.6 -0.9 1.3 0 1.6 -45.1 46.7 -46.8 46.7 -0.6 0 -1.2 0.7 -1.2 1.5 0 1.5 -5.8 3.5 -10 3.4 -1.4 0 -4.1 -0.5 -6 -1.2z"/>
  <path d="M76.7 289.3 c-0.4 -0.3 -0.7 -1.7 -0.7 -3 0 -1.2 -0.4 -2.3 -1 -2.3 -0.5 0 -1 -2 -1 -4.5 0 -2.5 0.5 -4.5 1 -4.5 0.6 0 1 -1.1 1 -2.5 0 -2.1 0.5 -2.5 3.1 -2.5 l3 0 -2 2.9 c-2.9 4.1 -2.7 9.4 0.5 13.7 l2.6 3.4 -2.9 0 c-1.6 0 -3.3 -0.3 -3.6 -0.7z"/>
  <path d="M125 224 c0 -3 1.5 -4 6.1 -4 4.3 0 3.5 2.2 -1.6 4.6 l-4.5 2.1 0 -2.7z"/>
  <path d="M136.8 223.2 c-1.9 -0.4 -2.4 -2.7 -0.8 -3.7 0.6 -0.3 1 -2.5 1 -4.8 0 -5.1 1.2 -7.2 3.5 -6.3 1.3 0.5 1.5 1.2 1 2.9 -0.5 1.2 -0.8 4.1 -0.7 6.4 0.1 4.4 -1.2 6.2 -4 5.5z"/>
  <path d="M179.7 210.2 c-1.5 -1.6 -1.5 -1.9 0.3 -3 1.8 -1.1 2 -0.9 2 1.8 0 3.5 -0.2 3.6 -2.3 1.2z"/>
  <path d="M292 198 c0 -1.3 -0.7 -2 -2 -2 -1.8 0 -2 -0.7 -2 -6.5 0 -5.8 0.2 -6.5 2 -6.5 1.3 0 2 -0.7 2 -2 0 -1.6 0.7 -2 3.5 -2 4.1 0 4.9 2.4 1 3.4 -6.5 1.6 -7 10.7 -0.8 13.6 4.4 2 4.2 4 -0.2 4 -2.8 0 -3.5 -0.4 -3.5 -2z"/>
  <path d="M430 198.8 c0 -0.7 1.5 -2 3.3 -2.8 6.2 -2.9 5.7 -12 -0.8 -13.6 -3.9 -1 -3.1 -3.4 1 -3.4 2.8 0 3.5 0.4 3.5 2 0 1.3 0.7 2 2 2 1.8 0 2 0.7 2 6.5 0 5.8 -0.2 6.5 -2 6.5 -1.3 0 -2 0.7 -2 2 0 1.6 -0.7 2 -3.5 2 -2.1 0 -3.5 -0.5 -3.5 -1.2z"/>
  <path d="M211.1 176.3 c0.7 -1 5.6 -6.2 10.8 -11.6 6.7 -6.9 11.4 -10.8 15.6 -12.9 3.3 -1.7 6.8 -3.8 7.9 -4.7 2 -1.8 7.6 -12.3 7.6 -14.4 0 -1.6 -6.1 -7.7 -7.8 -7.7 -0.7 0 -4.3 1.5 -8 3.4 -6.2 3.1 -7 3.8 -9.7 9.5 -1.6 3.4 -3.7 6.9 -4.7 7.8 -1.7 1.5 -1.8 1.4 -1.8 -1.5 0 -3.8 4.9 -14.2 6.7 -14.2 0.7 0 1.3 -0.6 1.3 -1.3 0 -2 12.5 -7.7 16.9 -7.7 3.2 0 4.5 0.6 7.5 4 2.7 3 3.6 4.9 3.6 7.5 0 1.9 -0.4 3.5 -1 3.5 -0.5 0 -1 1 -1 2.3 0 1.2 -1.3 4.4 -2.8 7.2 -2.9 5.4 -8.7 9.5 -13.4 9.5 -1.6 0 -2.8 0.6 -2.8 1.3 0 0.7 -4.6 5.8 -10.3 11.5 -8.2 8.2 -10.8 10.2 -13.1 10.2 -2.5 0 -2.7 -0.2 -1.5 -1.7z"/>
  <path d="M292.3 175 c-3.1 -1.3 -4.3 -4.1 -4.3 -10.3 0 -7.5 2 -9.8 8.8 -10.5 4.3 -0.4 5.2 -0.2 5.2 1.1 0 1 -1.3 1.8 -3.5 2.3 -3.7 0.7 -7.5 4.4 -7.5 7.4 0 1 0.9 2.9 2.1 4.4 l2 2.6 69.4 0 69.4 0 2 -2.6 c1.2 -1.5 2.1 -3.4 2.1 -4.4 0 -3 -3.8 -6.7 -7.5 -7.4 -2.2 -0.5 -3.5 -1.3 -3.5 -2.3 0 -2.5 9.8 -1.2 12.2 1.7 2.6 3.2 2.5 12.9 -0.1 16.1 l-1.9 2.4 -71.4 0.2 c-39.9 0.1 -72.3 -0.2 -73.5 -0.7z"/>
  <path d="M292 149 c0 -1.3 -0.7 -2 -2 -2 -1.8 0 -2 -0.7 -2 -6.5 0 -5.8 0.2 -6.5 2 -6.5 1.3 0 2 -0.7 2 -2 0 -1.6 0.7 -2 3.5 -2 4.1 0 4.9 2.4 1 3.4 -6.5 1.6 -7 10.7 -0.8 13.6 4.4 2 4.2 4 -0.2 4 -2.8 0 -3.5 -0.4 -3.5 -2z"/>
  <path d="M430 149.8 c0 -0.7 1.5 -2 3.3 -2.8 6.2 -2.9 5.7 -12 -0.8 -13.6 -3.9 -1 -3.1 -3.4 1 -3.4 2.8 0 3.5 0.4 3.5 2 0 1.3 0.7 2 2 2 1.8 0 2 0.7 2 6.5 0 5.8 -0.2 6.5 -2 6.5 -1.3 0 -2 0.7 -2 2 0 1.6 -0.7 2 -3.5 2 -2.1 0 -3.5 -0.5 -3.5 -1.2z"/>
 </g>
 <g fill="#ffffff">
  <path d="M46 328.1 c-0.7 -1.3 -1 -38.9 -1 -114.5 l0 -112.6 220.5 0 220.5 0 0 109.6 0 109.7 -4.5 -4.2 c-5.2 -4.8 -5.7 -4.7 -12 1.9 -2.2 2.3 -5.3 4.8 -6.8 5.7 -2.7 1.3 -3.3 1.3 -8.3 -0.8 -3 -1.2 -5.9 -3 -6.4 -4 -0.6 -1 -1 -5.3 -1 -9.6 0 -4.8 -0.5 -8.4 -1.2 -9.1 -1.7 -1.7 -28.9 -1.7 -30.6 0 -0.7 0.7 -1.2 4.4 -1.2 9.4 0 6.4 -0.4 8.6 -1.7 10.2 -1.7 1.8 -9 5.2 -11.4 5.2 -0.6 0 -3.6 -2.4 -6.7 -5.4 -9.7 -9.1 -8.9 -9.1 -19.6 1.3 l-9.2 9.1 -159.2 0 c-156.3 0 -159.1 0 -160.2 -1.9z m189.4 -22.1 c0.7 -0.7 -1.9 -4 -9.2 -11.3 l-10.2 -10.2 9.7 -9.7 9.7 -9.7 10.4 10.2 c10 9.8 10.4 10.1 11.9 8.2 2.2 -3 1.3 -14.9 -1.7 -21 -6.3 -13 -21.3 -20.5 -35.1 -17.6 l-5.3 1.2 -18.6 -18.6 -18.5 -18.5 27.5 -27.6 c23.9 -23.9 28.3 -27.9 33.7 -30.4 6.6 -3 7.8 -4.4 11.8 -13.3 l2.5 -5.8 -3.9 -4.2 -4 -4.2 -7.8 4 c-7.5 3.8 -8 4.3 -11.5 11 -3.1 6 -7.7 11 -30.7 34 l-27.1 27 -18.6 -18.6 -18.6 -18.6 1.2 -6 c3.5 -17.7 -9.4 -35.1 -27.4 -37 -6.3 -0.6 -12.6 0.3 -12.6 1.9 0 0.6 4.5 5.7 10 11.2 l10 10.2 -9.8 9.7 -9.7 9.7 -10 -10 c-5.5 -5.5 -10.5 -10 -11.2 -10 -0.6 0 -1.5 2 -1.9 4.5 -2 13.5 5.8 27.2 18.8 33 5.6 2.5 6.9 2.7 15.4 2.3 l9.2 -0.5 14.2 14.2 c13.3 13.3 14.1 14.4 13 16.5 -0.7 1.3 -1 3.7 -0.7 5.5 0.7 4.3 -0.7 5.5 -6.2 5.5 l-4.5 0 -25.3 25.2 c-16.7 16.7 -25.6 26.3 -26.3 28.4 -1.6 4.6 0.5 8.6 8.2 16.2 6.8 6.6 10.5 8.4 15.3 7.1 2.1 -0.6 10.9 -8.8 28.3 -26.2 l25.2 -25.4 0 -4.6 c0 -5.1 0.9 -6.1 6 -6.3 1.9 0 4.4 -0.4 5.5 -0.8 1.6 -0.5 4.7 2 16.3 13.7 l14.4 14.4 -1.2 5.7 c-1.9 9.2 0.9 19.2 7.5 26.5 4.5 5 9.4 8.1 15.5 9.8 5 1.4 14.7 1 16.4 -0.7z m132.1 -19.6 c0.8 -0.4 2.3 -2 3.1 -3.6 1.3 -2.5 1.3 -3.5 0.3 -5.9 -0.6 -1.7 -2 -3.4 -3 -3.9 -1 -0.6 -16.3 -1 -36.9 -1 l-35.1 0 -2.4 2.5 c-1.4 1.3 -2.5 3.6 -2.5 5 0 1.4 1.1 3.7 2.5 5 l2.4 2.5 35 0 c19.2 0 35.7 -0.3 36.6 -0.6z m65.1 -24.4 c3.5 -1.4 5.3 -3.8 5.3 -7 0 -3.2 -1.8 -5.6 -5.3 -7 -3.8 -1.4 -132.4 -1.4 -136.2 0 -7 2.7 -7.2 11.1 -0.3 13.9 3.4 1.4 132.9 1.4 136.5 0.1z m2.9 -26.5 c3.2 -3.1 3.2 -6.9 0 -10 l-2.4 -2.5 -68.6 0 -68.6 0 -2.4 2.5 c-1.4 1.3 -2.5 3.6 -2.5 5 0 1.4 1.1 3.7 2.5 5 l2.4 2.5 68.6 0 68.6 0 2.4 -2.5z m0.2 -40.7 c3 -2.8 3 -7.4 0.1 -10.5 l-2.1 -2.3 -69.1 0 -69 0 -2.3 2.2 c-3 2.8 -3 7.4 -0.1 10.5 l2.1 2.3 69.1 0 69 0 2.3 -2.2z m0.4 -24.7 c1 -1.3 1.9 -3.6 1.9 -5.1 0 -1.5 -0.9 -3.8 -1.9 -5.1 l-1.9 -2.4 -68.4 -0.2 c-53.6 -0.2 -68.8 0 -70.8 1 -3.2 1.6 -4.7 5.8 -3.4 9.4 1.9 5.4 0.5 5.3 74.2 5 l68.4 -0.2 1.9 -2.4z m-0.4 -24.3 c3 -2.8 3 -7.4 0.1 -10.5 l-2.1 -2.3 -69.1 0 -69 0 -2.3 2.2 c-3 2.8 -3 7.4 -0.1 10.5 l2.1 2.3 69.1 0 69 0 2.3 -2.2z"/>
 </g>
</svg>